<?xml version="1.0" encoding="UTF-8"?>
<svg width="273px" height="225px" viewBox="0 0 273 225" version="1.1" xmlns="http://www.w3.org/2000/svg" xmlns:xlink="http://www.w3.org/1999/xlink">
    <!-- Generator: Sketch 47.1 (45422) - http://www.bohemiancoding.com/sketch -->
    <title>Page 1</title>
    <desc>Created with Sketch.</desc>
    <defs>
        <polygon id="path-1" points="0 214.75811 0 0.45789557 271.621902 0.45789557 271.621902 214.75811"></polygon>
        <polygon id="path-3" points="0 225 273 225 273 1 0 1"></polygon>
    </defs>
    <g id="Welcome" stroke="none" stroke-width="1" fill="none" fill-rule="evenodd">
        <g id="Desktop-HD" transform="translate(-174.000000, -1165.000000)">
            <g id="Page-1" transform="translate(174.000000, 1165.000000)">
                <g id="Group-3">
                    <mask id="mask-2" fill="white">
                        <use xlink:href="#path-1"></use>
                    </mask>
                    <g id="Clip-2"></g>
                    <path d="M269.005355,104.191994 L269.005355,104.191994 C265.029135,97.3303639 257.348696,93.5154747 249.497325,94.5033861 L228.368148,105.988196 C221.509813,109.690142 212.958432,107.142801 209.225724,100.286614 L205.834202,93.9726899 C202.144227,87.0933703 204.68312,78.5165032 211.518392,74.7723734 L223.049564,68.4924684 L223.605774,68.1522785 L247.400686,54.3677848 C256.775529,48.9036551 259.990691,36.8718196 254.598173,27.4376741 C249.152746,18.0287025 237.152866,14.7996203 227.744108,20.2120411 L206.037694,32.7650475 C199.668417,36.4527057 193.692557,26.8661551 191.237095,22.1783386 C190.901335,21.3496361 190.508597,20.5447468 190.063629,19.7697943 C184.616168,10.3669462 172.621035,7.1419462 163.215669,12.5509652 L159.919789,14.4628323 C140.634921,22.9199525 133.282103,16.6808703 130.752028,12.7959019 C126.704587,2.71131329 115.273803,-2.17313291 105.219978,1.88669304 C104.360567,2.23436709 103.526252,2.64191456 102.723818,3.1072943 L21.5572549,50.1154114 C12.1830903,55.5788608 8.96792818,67.6100158 14.3604469,77.0448418 C14.7260529,77.6789557 15.1269307,78.2926582 15.5610454,78.8818671 C18.0843372,83.1954747 22.7103721,94.1836076 9.80902544,101.409241 C0.433504239,106.875411 -2.77962294,118.911329 2.6190005,128.345475 C6.8109207,135.600364 15.1052249,139.416614 23.3208459,137.870791 L24.2297736,137.783022 L46.5670105,125.638244 C53.4253446,121.936297 61.9760479,124.483639 65.7087561,131.339826 L69.1002773,137.65375 C72.7909307,144.53307 70.2513596,153.109937 63.4160878,156.854066 L27.0454145,176.619778 L24.6978035,177.980538 C15.3195691,183.443987 12.1037287,195.480585 17.5009955,204.916772 C22.9484569,214.31962 34.943589,217.54462 44.3489556,212.135601 L103.864048,177.667563 C97.2478683,183.943386 95.7732349,193.946329 100.295489,201.875475 C105.742951,211.277642 117.738083,214.503323 127.143449,209.094304 L261.828896,131.115301 C271.191529,125.644367 274.396517,113.619335 269.005355,104.191994" id="Fill-1" fill="#28BC83" mask="url(#mask-2)"></path>
                </g>
                <path d="M32.1417754,127 L90.8582246,127 C95.35452,127 99,130.626254 99,135.098836 L99,190.900489 C99,195.373746 95.35452,199 90.8582246,199 L32.1417754,199 C27.64548,199 24,195.373746 24,190.900489 L24,135.098836 C24,130.626254 27.64548,127 32.1417754,127" id="Fill-4" fill="#CAD4D8"></path>
                <path d="M64.3635985,136 L84.6364015,136 C88.1514994,136 91,138.841889 91,142.347296 L91,183.653389 C91,187.158797 88.1514994,190 84.6364015,190 L64.3635985,190 C60.8491878,190 58,187.158797 58,183.653389 L58,142.347296 C58,138.841889 60.8491878,136 64.3635985,136" id="Fill-6" fill="#858585"></path>
                <path d="M32.2315917,135.689526 C30.2713391,135.693705 28.6826243,137.3221 28.6792282,139.331476 L28.6792282,156.654594 C28.6826243,158.66397 30.2713391,160.293062 32.2315917,160.296544 L50.7684083,160.296544 C52.7286609,160.293062 54.3166964,158.66397 54.3207718,156.654594 L54.3207718,139.339137 C54.3207718,137.326279 52.7313778,135.693705 50.7684083,135.689526 L32.2315917,135.689526 Z M50.7684083,161 L32.2315917,161 C29.8964051,160.996518 28.0033961,159.056094 28,156.660863 L28,139.339137 C28.0033961,136.944602 29.8964051,135.004179 32.2315917,135 L50.7684083,135 C53.1035949,135.004179 54.9959246,136.944602 55,139.339137 L55,156.654594 C55,159.051915 53.1063118,160.996518 50.7684083,161 L50.7684083,161 Z" id="Fill-8" fill="#858585"></path>
                <path d="M32.2315917,165.697032 C30.2713391,165.701214 28.6826243,167.330876 28.6792282,169.342511 L28.6792282,186.6784 C28.6826243,188.690035 30.2713391,190.319697 32.2315917,190.323879 L50.7684083,190.323879 C52.7286609,190.319697 54.3166964,188.690035 54.3207718,186.6784 L54.3207718,169.3216 C54.3058288,167.318329 52.7205102,165.701214 50.7684083,165.697032 L32.2315917,165.697032 Z M50.7684083,191 L32.2315917,191 C29.8964051,190.995818 28.0033961,189.053886 28,186.656792 L28,169.3216 C28.014943,166.93287 29.9038766,165.004182 32.2315917,165 L50.7684083,165 C53.1035949,165.004182 54.9959246,166.946114 55,169.342511 L55,186.6784 C54.985057,189.066433 53.0954441,190.995818 50.7684083,191 L50.7684083,191 Z" id="Fill-10" fill="#858585"></path>
                <path d="M185.450658,121.99702 C183.54452,121.99702 181.43342,119.958389 179.227355,117.865394 C177.996906,116.689784 175.721837,114.508449 174.930004,114.508449 C174.242018,114.817641 173.432421,114.513885 173.121564,113.829585 C172.854431,113.242459 173.038896,112.550004 173.563597,112.170819 C175.803822,110.811732 178.399996,113.278475 181.153307,115.908309 C182.356428,117.056737 184.569325,119.163323 185.38917,119.265254 C185.676115,118.476984 184.760622,115.575332 184.262567,113.998791 C183.120933,110.376824 182.048987,106.958719 184.262567,105.579246 C186.475464,104.199772 189.099649,106.686902 191.852277,109.316736 C193.055399,110.465164 195.268296,112.57175 196.08814,112.673681 C196.375086,111.88541 195.459593,108.983759 194.961537,107.400423 C193.819904,103.778455 192.747957,100.360351 194.961537,98.980877 C197.174434,97.6014034 199.79862,100.088533 202.551247,102.718367 C203.754369,103.866796 205.967266,105.973381 206.787111,106.075312 C207.074056,105.287042 206.159246,102.385391 205.660508,100.802054 C204.518874,97.1800864 203.446927,93.7619819 205.660508,92.3825084 C207.873404,91.0030348 210.49759,93.4901645 213.250218,96.1199983 C214.45334,97.2684271 216.666236,99.3750123 217.486764,99.4769438 C217.77371,98.6886732 216.858217,95.787022 216.359478,94.2036853 C215.217844,90.5817178 214.145898,87.1636133 216.359478,85.7834602 C218.572375,84.4046662 221.203392,86.8917959 223.949871,89.5216297 C225.15231,90.6700584 227.36589,92.7766437 228.192566,92.8785752 C228.478829,92.0903046 227.564019,89.1886533 227.06528,87.6121121 C225.92433,83.9901446 224.8517,80.5720402 227.06528,79.1925666 C229.27886,77.8124135 231.902363,80.3002227 234.655674,82.9300565 C235.858112,84.0784853 238.071692,86.1850705 238.891537,86.2870021 C239.179166,85.4987314 238.262989,82.5970802 237.764251,81.0205389 C236.6233,77.3985714 235.550671,73.9797874 237.764251,72.6009934 C239.978514,71.2208403 242.601333,73.7018541 245.355327,76.3384834 C246.557083,77.4869121 248.771346,79.5934973 249.598022,79.6954289 C249.884968,78.9064787 248.969475,76.0048274 248.470053,74.4221703 C247.329103,70.8002028 246.256473,67.3814188 248.470053,66.0026248 C250.683633,64.6224717 253.307135,67.1096014 256.06113,69.7401147 C257.262885,70.8885435 259.477148,72.9951287 260.303825,73.0970603 C260.590087,72.3081101 259.675277,69.4064588 259.182687,67.8231222 C258.041737,64.2011546 256.969791,60.7830502 259.182687,59.3967812 C261.396268,58.0105122 264.027285,60.4983214 266.773081,63.1274757 C268.002848,64.3030862 270.285431,66.4851008 271.070432,66.4851008 C271.758418,66.1752289 272.568015,66.4796644 272.878873,67.1632853 C273.145322,67.750411 272.960857,68.4435455 272.43684,68.8227308 C270.196615,70.1818181 267.592925,67.7211906 264.84713,65.0913568 C263.644008,63.9429281 261.430428,61.8363428 260.603751,61.7344113 C260.316806,62.5226819 261.232982,65.4250127 261.724889,67.0083494 C262.865839,70.6303169 263.938469,74.0477418 261.724889,75.4278949 C259.510625,76.8073685 256.887806,74.3270342 254.133812,71.6897254 C252.931373,70.5412967 250.717793,68.4347114 249.891117,68.3327799 C249.604171,69.1210505 250.519664,72.0227018 251.019086,73.606718 C252.160036,77.2286855 253.231983,80.6461104 251.019086,82.0262635 C248.804823,83.4050575 246.182004,80.9254028 243.42801,78.2887736 C242.226254,77.1403448 240.011991,75.0337596 239.185314,74.931828 C238.898369,75.7194191 239.813862,78.6210704 240.312601,80.1982912 C241.453551,83.8202587 242.526181,87.2383631 240.312601,88.6178367 C238.099704,89.9973103 235.639487,87.4823193 232.906672,84.853165 C231.704234,83.7040567 229.490654,81.598151 228.670809,81.4955399 C228.383863,82.2844901 229.299356,85.1861414 229.798095,86.769478 C230.939045,90.3914456 232.011675,93.80955 229.798095,95.1890236 C227.584515,96.5684971 224.961013,94.0813675 222.207702,91.4515336 C221.005263,90.3031049 218.791683,88.1965196 217.965007,88.0945881 C217.678061,88.8828587 218.593554,91.78451 219.092293,93.3678466 C220.233243,96.9898142 221.30519,100.407919 219.092293,101.787392 C216.878713,103.166866 214.25521,100.679736 211.501899,98.0499022 C210.299461,96.9014735 208.085881,94.7948883 207.266036,94.6929567 C206.979091,95.4812273 207.894584,98.3828786 208.393322,99.9594198 C209.534273,103.581387 210.606219,106.999492 208.393322,108.378965 C206.179742,109.758439 203.55624,107.271309 200.802929,104.641475 C199.600491,103.493047 197.38691,101.386461 196.567066,101.28453 C196.28012,102.072801 197.19493,104.974452 197.694352,106.557788 C198.835302,110.179756 199.907249,113.59786 197.694352,114.977334 C195.480772,116.356808 192.85727,113.869678 190.103959,111.239844 C188.90152,110.091415 186.68794,107.98483 185.867412,107.882899 C185.580467,108.671169 186.49596,111.57282 186.995382,113.149362 C188.136332,116.772009 189.208279,120.189434 186.995382,121.568907 C186.540368,121.872663 185.998588,122.023522 185.450658,121.99702" id="Fill-12" fill="#FFDA00"></path>
                <path d="M80.1375521,27 L201.862448,27 C206.357089,27 210,30.672321 210,35.201722 L210,167.797595 C210,172.327679 206.357089,176 201.862448,176 L80.1375521,176 C75.643589,176 72,172.327679 72,167.797595 L72,35.201722 C72,30.672321 75.643589,27 80.1375521,27" id="Fill-14" fill="#4D5051"></path>
                <path d="M78.1375122,25 L199.862488,25 C204.357107,25 208,28.6723379 208,33.2017596 L208,165.79824 C208,170.327662 204.357107,174 199.862488,174 L78.1375122,174 C73.6435711,174 70,170.327662 70,165.79824 L70,33.2017596 C70,28.6723379 73.6435711,25 78.1375122,25" id="Fill-16" fill="#FFFFFF"></path>
                <path d="M40,32 C51.046,32 60,41.1783804 60,52.4996583 C60,63.8216196 51.046,73 40,73 C28.9546667,73 20,63.8216196 20,52.4996583 C20,41.1783804 28.9546667,32 40,32" id="Fill-18" fill="#FFDA00"></path>
                <mask id="mask-4" fill="white">
                    <use xlink:href="#path-3"></use>
                </mask>
                <g id="Clip-21"></g>
                <polygon id="Fill-20" fill="#9BBBC6" mask="url(#mask-4)" points="84 154 194 154 194 101 84 101"></polygon>
                <polygon id="Fill-22" fill="#CAD4D8" mask="url(#mask-4)" points="84 97 117 97 117 44 84 44"></polygon>
                <polygon id="Fill-23" fill="#CAD4D8" mask="url(#mask-4)" points="122 97 155 97 155 44 122 44"></polygon>
                <polygon id="Fill-24" fill="#FFDA00" mask="url(#mask-4)" points="163 97 196 97 196 44 163 44"></polygon>
                <polygon id="Fill-25" fill="#A5A5A5" mask="url(#mask-4)" points="87 34 197 34 197 33 87 33"></polygon>
                <polygon id="Fill-26" fill="#A5A5A5" mask="url(#mask-4)" points="87 34 88 34 88 30 87 30"></polygon>
                <polygon id="Fill-27" fill="#A5A5A5" mask="url(#mask-4)" points="194 34 195 34 195 30 194 30"></polygon>
                <polygon id="Fill-28" fill="#A5A5A5" mask="url(#mask-4)" points="64 127 65 127 65 44 64 44"></polygon>
                <polygon id="Fill-29" fill="#969696" mask="url(#mask-4)" points="62 44 66 44 66 43 62 43"></polygon>
                <polygon id="Fill-30" fill="#969696" mask="url(#mask-4)" points="62 127 66 127 66 126 62 126"></polygon>
                <polygon id="Fill-31" fill="#A5A5A5" mask="url(#mask-4)" points="100 181 199 181 199 180 100 180"></polygon>
                <polygon id="Fill-32" fill="#A5A5A5" mask="url(#mask-4)" points="99 184 100 184 100 179 99 179"></polygon>
                <polygon id="Fill-33" fill="#A5A5A5" mask="url(#mask-4)" points="197 184 198 184 198 179 197 179"></polygon>
                <path d="M154.348856,96.9999971 C154.120637,97.0006807 153.908228,96.8824029 153.787932,96.6868683 L122.084052,44.9925986 C121.906014,44.6705819 122.020123,44.2644718 122.338393,44.0853457 C122.637414,43.9157913 123.014113,44.006038 123.206587,44.2925029 L154.903593,95.9867727 C155.093317,96.3012688 154.994331,96.7114811 154.682936,96.9029135 C154.582574,96.965129 154.46709,96.9986297 154.348856,96.9999971" id="Fill-34" fill="#A5A5A5" mask="url(#mask-4)"></path>
                <path d="M122.661229,96.9999988 C122.29694,97.0006824 122.000697,96.7026332 122.00001,96.3348568 C121.999323,96.2090745 122.034377,96.0867103 122.100361,95.9800688 L153.79351,44.2924477 C153.998336,43.9875625 154.409364,43.908265 154.710418,44.1153955 C154.994289,44.3095377 155.082955,44.6909861 154.915932,44.9924534 L123.222097,96.6800744 C123.103187,96.8783182 122.8908,96.9993152 122.661229,96.9999988" id="Fill-35" fill="#A5A5A5" mask="url(#mask-4)"></path>
                <path d="M34.5850463,94.2092264 L90.2490628,61.7816738 C96.5462546,58.1138949 104.59818,60.2904464 108.233902,66.644342 C111.869624,72.9982376 109.711821,81.1226676 103.415305,84.7911278 L47.7506131,117.217999 C41.4534212,120.886459 33.4014956,118.709227 29.7657737,112.356012 C26.1307269,106.002117 28.2878544,97.8776866 34.5850463,94.2092264" id="Fill-36" fill="#C0DB52" mask="url(#mask-4)"></path>
                <path d="M32.5850463,90.2091403 L88.2490628,57.7816693 C94.5462546,54.1138996 102.59818,56.2904457 106.233902,62.6443253 C109.869624,68.9982049 107.711821,77.1226144 101.415305,80.7910653 L45.7506131,113.217855 C39.4534212,116.886306 31.4014956,114.70976 27.7657737,108.35588 C24.1307269,102.002001 26.2878544,93.8775912 32.5850463,90.2091403" id="Fill-37" fill="#CEF25C" mask="url(#mask-4)"></path>
                <path d="M34,63 C38.4186122,63 42,66.5820408 42,71 C42,75.4186122 38.4186122,79 34,79 C29.5813878,79 26,75.4186122 26,71 C26,66.5820408 29.5813878,63 34,63" id="Fill-38" fill="#CAD4D8" mask="url(#mask-4)"></path>
                <path d="M204.999673,8 C209.418105,8 213,11.5813878 213,16 C213,20.4186122 209.418105,24 204.999673,24 C200.581895,24 197,20.4186122 197,16 C197,11.5813878 200.581895,8 204.999673,8" id="Fill-39" fill="#CAD4D8" mask="url(#mask-4)"></path>
                <path d="M238.499657,133 C250.926059,133 261,143.073941 261,155.499657 C261,167.926059 250.926059,178 238.499657,178 C226.073941,178 216,167.926059 216,155.499657 C216,143.073941 226.073941,133 238.499657,133" id="Fill-40" fill="#CAD4D8" mask="url(#mask-4)"></path>
                <path d="M87,203 C93.0753641,203 98,207.924636 98,214 C98,220.075364 93.0753641,225 87,225 C80.9246359,225 76,220.075364 76,214 C76,207.924636 80.9246359,203 87,203" id="Fill-41" fill="#28BC83" mask="url(#mask-4)"></path>
                <path d="M167.00035,161 C173.627681,161 179,166.372476 179,173 C179,179.627524 173.627681,185 167.00035,185 C160.372319,185 155,179.627524 155,173 C155,166.372476 160.372319,161 167.00035,161" id="Fill-42" fill="#858585" mask="url(#mask-4)"></path>
            </g>
        </g>
    </g>
</svg>