<?xml version="1.0" encoding="UTF-8"?>
<svg width="230px" height="237px" viewBox="0 0 230 237" version="1.1" xmlns="http://www.w3.org/2000/svg" xmlns:xlink="http://www.w3.org/1999/xlink">
    <!-- Generator: Sketch 47.1 (45422) - http://www.bohemiancoding.com/sketch -->
    <title>Page 1</title>
    <desc>Created with Sketch.</desc>
    <defs>
        <polygon id="path-1" points="9.28904977e-15 170.811526 9.28904977e-15 0.478675182 106.999689 0.478675182 106.999689 170.811526"></polygon>
        <polygon id="path-3" points="107.79331 0.4430397 107.79331 165.830643 0.620317241 165.830643 0.620317241 0.4430397 107.79331 0.4430397"></polygon>
        <polygon id="path-5" points="0 237 230 237 230 0 0 0"></polygon>
    </defs>
    <g id="Welcome" stroke="none" stroke-width="1" fill="none" fill-rule="evenodd">
        <g id="Desktop-HD" transform="translate(-228.000000, -401.000000)">
            <g id="Page-1" transform="translate(228.000000, 401.000000)">
                <path d="M197.536764,180 L33.4626123,180 C30.4460482,180 28,177.544273 28,174.515148 L28,79.4848524 C28,76.4557266 30.4460482,74 33.4626123,74 L197.536764,74 C200.553952,74 203,76.4557266 203,79.4848524 L203,174.515148 C203,177.544273 200.553952,180 197.536764,180 Z" id="Fill-1" fill="#CAD4D8"></path>
                <path d="M197.536764,177 L33.4626123,177 C30.4460482,177 28,174.544885 28,171.515741 L28,76.4848848 C28,73.4557411 30.4460482,71 33.4626123,71 L197.536764,71 C200.553952,71 203,73.4557411 203,76.4848848 L203,171.515741 C203,174.544885 200.553952,177 197.536764,177" id="Fill-3" fill="#FFFFFF"></path>
                <g id="Group-7" transform="translate(0.000000, 8.000000)">
                    <mask id="mask-2" fill="white">
                        <use xlink:href="#path-1"></use>
                    </mask>
                    <g id="Clip-6"></g>
                    <path d="M-0.000311046512,115.248383 C-0.000311046512,135.387066 5.19043314,154.329996 14.2916541,170.811526 C15.180625,168.904314 16.8515669,167.396518 19.2976366,166.969018 C10.9690552,151.575274 6.22061919,133.959777 6.22061919,115.248383 C6.22061919,57.8448066 50.7674564,10.6968613 106.999689,6.73390511 L106.999689,0.478675182 C47.3347471,4.45286496 -0.000311046512,54.4023394 -0.000311046512,115.248383" id="Fill-5" fill="#9BBBC6" mask="url(#mask-2)"></path>
                </g>
                <g id="Group-10" transform="translate(122.000000, 8.000000)">
                    <mask id="mask-4" fill="white">
                        <use xlink:href="#path-3"></use>
                    </mask>
                    <g id="Clip-9"></g>
                    <path d="M90.2870069,162.953931 C92.2570759,163.635961 93.9714207,164.825939 95.7825931,165.830643 C103.451834,150.454815 107.793559,133.136103 107.793559,114.811444 C107.793559,54.0554442 60.3474207,4.19886742 0.620317241,0.4430397 L0.620317241,6.67270262 C56.9218345,10.417961 101.586662,57.4842457 101.586662,114.811444 C101.586662,132.097826 97.5043862,148.43919 90.2870069,162.953931" id="Fill-8" fill="#9BBBC6" mask="url(#mask-4)"></path>
                </g>
                <path d="M204.812184,183 C185.229019,211.803489 152.17463,230.769255 114.759829,230.769255 C78.883776,230.769255 47.0293107,213.321922 27.20404,186.494825 C25.4824637,187.668074 23.7053527,188.760324 22,189.950396 C42.9503168,218.451694 76.71917,237 114.759829,237 C154.334244,237 189.297405,216.933262 210,186.459933 C207.528393,186.154003 205.797457,184.791962 204.812184,183" id="Fill-11" fill="#9BBBC6"></path>
                <path d="M36,89.5 C36,94.1945421 39.8054579,98 44.5,98 C49.1951776,98 53,94.1945421 53,89.5 C53,84.8054579 49.1951776,81 44.5,81 C39.8054579,81 36,84.8054579 36,89.5" id="Fill-13" fill="#28BC83"></path>
                <path d="M144,82 L155,82" id="Stroke-15" stroke="#9BBBC6" stroke-width="3" stroke-linecap="round"></path>
                <path d="M162,82 L173,82" id="Stroke-17" stroke="#9BBBC6" stroke-width="3" stroke-linecap="round"></path>
                <path d="M110,82 L121,82" id="Stroke-19" stroke="#9BBBC6" stroke-width="3" stroke-linecap="round"></path>
                <path d="M127,82 L138,82" id="Stroke-21" stroke="#9BBBC6" stroke-width="3" stroke-linecap="round"></path>
                <path d="M119,112 L177,112" id="Stroke-23" stroke="#9BBBC6" stroke-width="8" stroke-linecap="round"></path>
                <path d="M117,123 L177,123" id="Stroke-25" stroke="#9BBBC6" stroke-width="2" stroke-linecap="round"></path>
                <path d="M117,127 L177,127" id="Stroke-27" stroke="#9BBBC6" stroke-width="2" stroke-linecap="round"></path>
                <path d="M117,131 L177,131" id="Stroke-29" stroke="#9BBBC6" stroke-width="2" stroke-linecap="round"></path>
                <path d="M117,135 L177,135" id="Stroke-31" stroke="#9BBBC6" stroke-width="2" stroke-linecap="round"></path>
                <path d="M117,139 L177,139" id="Stroke-33" stroke="#9BBBC6" stroke-width="2" stroke-linecap="round"></path>
                <path d="M117,143 L177,143" id="Stroke-35" stroke="#9BBBC6" stroke-width="2" stroke-linecap="round"></path>
                <path d="M117,148 L177,148" id="Stroke-37" stroke="#9BBBC6" stroke-width="2" stroke-linecap="round"></path>
                <path d="M117,152 L177,152" id="Stroke-39" stroke="#9BBBC6" stroke-width="2" stroke-linecap="round"></path>
                <path d="M117,156 L177,156" id="Stroke-41" stroke="#9BBBC6" stroke-width="2" stroke-linecap="round"></path>
                <mask id="mask-6" fill="white">
                    <use xlink:href="#path-5"></use>
                </mask>
                <g id="Clip-44"></g>
                <polygon id="Fill-43" fill="#CAD4D8" mask="url(#mask-6)" points="53 147 105 147 105 110 53 110"></polygon>
                <polygon id="Fill-45" fill="#CAD4D8" mask="url(#mask-6)" points="28 75 203 75 203 68 28 68"></polygon>
                <path d="M32,71.4996538 C32,72.3284099 32.6715901,73 33.5003462,73 C34.3284099,73 35,72.3284099 35,71.4996538 C35,70.6715901 34.3284099,70 33.5003462,70 C32.6715901,70 32,70.6715901 32,71.4996538" id="Fill-46" fill="#F48E69" mask="url(#mask-6)"></path>
                <path d="M37,71.4996538 C37,72.3284099 37.6715901,73 38.5003462,73 C39.3284099,73 40,72.3284099 40,71.4996538 C40,70.6715901 39.3284099,70 38.5003462,70 C37.6715901,70 37,70.6715901 37,71.4996538" id="Fill-47" fill="#EFD154" mask="url(#mask-6)"></path>
                <path d="M41,71.4996538 C41,72.3284099 41.6715901,73 42.5003462,73 C43.3284099,73 44,72.3284099 44,71.4996538 C44,70.6715901 43.3284099,70 42.5003462,70 C41.6715901,70 41,70.6715901 41,71.4996538" id="Fill-48" fill="#5BAF65" mask="url(#mask-6)"></path>
                <path d="M84.8381538,156 L65.1618462,156 C63.9729231,156 63,155.100356 63,153.999715 C63,152.900214 63.9729231,152 65.1618462,152 L84.8381538,152 C86.0276923,152 87,152.900214 87,153.999715 C87,155.100356 86.0276923,156 84.8381538,156" id="Fill-49" fill="#28BC83" mask="url(#mask-6)"></path>
                <path d="M119.568266,14 C118.791417,14 118.024831,13.6518976 117.519975,12.9906938 C116.665505,11.8693839 116.88682,10.273331 118.017133,9.42503019 L129.884777,0.515643996 C131.016373,-0.332020461 132.62524,-0.111831345 133.479711,1.00884216 C134.335464,2.13015205 134.112224,3.72620495 132.981911,4.57450579 L121.114267,13.483892 C120.650467,13.8319944 120.107121,14 119.568266,14" id="Fill-50" fill="#9BBBC6" mask="url(#mask-6)"></path>
                <path d="M128.504454,25 C127.769123,25 127.040035,24.6832775 126.547526,24.0755128 L117.541912,12.9663807 C116.684234,11.9092125 116.864009,10.3702348 117.943909,9.53012541 C119.023809,8.69062745 120.594345,8.86733168 121.452646,9.9244999 L130.458885,21.033632 C131.315938,22.0908002 131.135539,23.6297779 130.055015,24.4698873 C129.596838,24.8269644 129.048149,25 128.504454,25" id="Fill-51" fill="#9BBBC6" mask="url(#mask-6)"></path>
                <path d="M18.5382801,181 C18.3941345,181 18.2493728,180.986081 18.1027631,180.958905 L4.03192857,178.262524 C2.6927291,178.005348 1.80013479,176.628656 2.03852954,175.187007 C2.27692429,173.746021 3.55945111,172.784922 4.89618655,173.041436 L18.9664051,175.737816 C20.3068366,175.99433 21.1994309,177.371022 20.9616521,178.812671 C20.7485137,180.09723 19.7086937,181 18.5382801,181" id="Fill-52" fill="#9BBBC6" mask="url(#mask-6)"></path>
                <path d="M18.4308862,180 C18.3088746,180 18.184435,179.990172 18.0587814,179.970516 C16.7330442,179.764132 15.8237245,178.509239 16.0288981,177.168966 L18.1722946,163.084435 C18.3762541,161.742934 19.612759,160.81973 20.9409242,161.029801 C22.2660543,161.236185 23.175374,162.491078 22.9714144,163.831965 L20.828018,177.915882 C20.6434831,179.13085 19.6091168,180 18.4308862,180" id="Fill-53" fill="#9BBBC6" mask="url(#mask-6)"></path>
                <path d="M211.12133,199.972883 C210.115879,199.823759 209.262655,199.074426 209.041518,198.033034 L206.053982,183.983823 C205.769574,182.646657 206.637206,181.334242 207.992216,181.05332 C209.346599,180.772398 210.674672,181.629396 210.95908,182.9678 L213.94599,197.016392 C214.230398,198.354176 213.363392,199.665972 212.008382,199.946894 C211.708313,200.00939 211.408244,200.014959 211.12133,199.972883" id="Fill-54" fill="#9BBBC6" mask="url(#mask-6)"></path>
                <path d="M194.116376,188.973367 C193.140533,188.831398 192.305072,188.129975 192.066546,187.142808 C191.752239,185.849445 192.581488,184.554278 193.917605,184.250488 L207.947763,181.064604 C209.28388,180.759612 210.620617,181.563903 210.933682,182.857265 C211.247369,184.150628 210.418119,185.445796 209.082623,185.749586 L195.053087,188.936071 C194.735674,189.008258 194.418882,189.017282 194.116376,188.973367" id="Fill-55" fill="#9BBBC6" mask="url(#mask-6)"></path>
                <path d="M104,180 L28,113 L28,176.208637 C28,178.303145 29.6949551,180 31.786351,180 L104,180 Z" id="Fill-56" fill="#5B5B5B" mask="url(#mask-6)"></path>
                <path d="M36.2,128 L33.8,128 C33.36032,128 33,127.5504 33,127 C33,126.4504 33.36032,126 33.8,126 L36.2,126 C36.63968,126 37,126.4504 37,127 C37,127.5504 36.63968,128 36.2,128" id="Fill-57" fill="#B951BC" mask="url(#mask-6)"></path>
                <path d="M36.2,138 L33.8,138 C33.36032,138 33,137.5504 33,137 C33,136.4504 33.36032,136 33.8,136 L36.2,136 C36.63968,136 37,136.4504 37,137 C37,137.5504 36.63968,138 36.2,138" id="Fill-58" fill="#B951BC" mask="url(#mask-6)"></path>
                <path d="M40.2,141 L37.8,141 C37.36032,141 37,140.5504 37,140 C37,139.4504 37.36032,139 37.8,139 L40.2,139 C40.63968,139 41,139.4504 41,140 C41,140.5504 40.63968,141 40.2,141" id="Fill-59" fill="#B951BC" mask="url(#mask-6)"></path>
                <path d="M43.2,143 L40.8,143 C40.36032,143 40,142.5504 40,142 C40,141.4504 40.36032,141 40.8,141 L43.2,141 C43.63968,141 44,141.4504 44,142 C44,142.5504 43.63968,143 43.2,143" id="Fill-60" fill="#B951BC" mask="url(#mask-6)"></path>
                <path d="M36.2,153 L33.8,153 C33.36032,153 33,153.4496 33,154 C33,154.5496 33.36032,155 33.8,155 L36.2,155 C36.63968,155 37,154.5496 37,154 C37,153.4496 36.63968,153 36.2,153" id="Fill-61" fill="#B951BC" mask="url(#mask-6)"></path>
                <path d="M36.2,155 L33.8,155 C33.36032,155 33,155.4496 33,156 C33,156.5496 33.36032,157 33.8,157 L36.2,157 C36.63968,157 37,156.5496 37,156 C37,155.4496 36.63968,155 36.2,155" id="Fill-62" fill="#B951BC" mask="url(#mask-6)"></path>
                <path d="M36.2,164 L33.8,164 C33.36032,164 33,164.4496 33,165 C33,165.5496 33.36032,166 33.8,166 L36.2,166 C36.63968,166 37,165.5496 37,165 C37,164.4496 36.63968,164 36.2,164" id="Fill-63" fill="#B951BC" mask="url(#mask-6)"></path>
                <path d="M39.2,150 L36.8,150 C36.36032,150 36,150.4496 36,151 C36,151.5496 36.36032,152 36.8,152 L39.2,152 C39.63968,152 40,151.5496 40,151 C40,150.4496 39.63968,150 39.2,150" id="Fill-64" fill="#B951BC" mask="url(#mask-6)"></path>
                <path d="M43.2,148 L40.8,148 C40.36032,148 40,148.4496 40,149 C40,149.5496 40.36032,150 40.8,150 L43.2,150 C43.63968,150 44,149.5496 44,149 C44,148.4496 43.63968,148 43.2,148" id="Fill-65" fill="#B951BC" mask="url(#mask-6)"></path>
                <path d="M44.4281881,130 L37.5712156,130 C37.2575837,130 37,129.774648 37,129.499739 C37,129.225352 37.2575837,129 37.5712156,129 L44.4281881,129 C44.7424163,129 45,129.225352 45,129.499739 C45,129.774648 44.7424163,130 44.4281881,130" id="Fill-66" fill="#FCE55E" mask="url(#mask-6)"></path>
                <path d="M44.4281881,132 L37.5712156,132 C37.2575837,132 37,131.775052 37,131.5 C37,131.224948 37.2575837,131 37.5712156,131 L44.4281881,131 C44.7424163,131 45,131.224948 45,131.5 C45,131.775052 44.7424163,132 44.4281881,132" id="Fill-67" fill="#FCE55E" mask="url(#mask-6)"></path>
                <path d="M44.4281881,135 L37.5712156,135 C37.2575837,135 37,134.774648 37,134.500261 C37,134.225352 37.2575837,134 37.5712156,134 L44.4281881,134 C44.7424163,134 45,134.225352 45,134.500261 C45,134.774648 44.7424163,135 44.4281881,135" id="Fill-68" fill="#FCE55E" mask="url(#mask-6)"></path>
                <path d="M53.3903636,145 L40.6096364,145 C40.2749091,145 40,144.774648 40,144.499739 C40,144.225352 40.2749091,144 40.6096364,144 L53.3903636,144 C53.7250909,144 54,144.225352 54,144.499739 C54,144.774648 53.7250909,145 53.3903636,145" id="Fill-69" fill="#FCE55E" mask="url(#mask-6)"></path>
                <path d="M53.3903636,147 L40.6096364,147 C40.2749091,147 40,146.774648 40,146.499739 C40,146.225352 40.2749091,146 40.6096364,146 L53.3903636,146 C53.7250909,146 54,146.225352 54,146.499739 C54,146.774648 53.7250909,147 53.3903636,147" id="Fill-70" fill="#FCE55E" mask="url(#mask-6)"></path>
                <path d="M66.3933984,159 L36.6066016,159 C36.2735406,159 36,158.774648 36,158.499739 C36,158.225352 36.2735406,158 36.6066016,158 L66.3933984,158 C66.7270926,158 67,158.225352 67,158.499739 C67,158.774648 66.7270926,159 66.3933984,159" id="Fill-71" fill="#FCE55E" mask="url(#mask-6)"></path>
                <path d="M66.3933984,163 L36.6066016,163 C36.2735406,163 36,162.774648 36,162.499739 C36,162.225352 36.2735406,162 36.6066016,162 L66.3933984,162 C66.7270926,162 67,162.225352 67,162.499739 C67,162.774648 66.7270926,163 66.3933984,163" id="Fill-72" fill="#FCE55E" mask="url(#mask-6)"></path>
                <path d="M50.3885106,161 L36.6114894,161 C36.2757447,161 36,160.774648 36,160.499739 C36,160.225352 36.2757447,160 36.6114894,160 L50.3885106,160 C50.7242553,160 51,160.225352 51,160.499739 C51,160.774648 50.7242553,161 50.3885106,161" id="Fill-73" fill="#FCE55E" mask="url(#mask-6)"></path>
                <path d="M66.3885106,161 L52.6114894,161 C52.2757447,161 52,160.774648 52,160.499739 C52,160.225352 52.2757447,160 52.6114894,160 L66.3885106,160 C66.7242553,160 67,160.225352 67,160.499739 C67,160.774648 66.7242553,161 66.3885106,161" id="Fill-74" fill="#FCE55E" mask="url(#mask-6)"></path>
                <polygon id="Fill-75" fill="#232323" mask="url(#mask-6)" points="28 115.150427 101.466873 180 104 180 28 113"></polygon>
                <path d="M166.538462,201 L200.461538,201 C204.607692,201 208,197.616951 208,193.48072 L208,130.51928 C208,126.383676 204.607692,123 200.461538,123 L166.538462,123 C162.392308,123 159,126.383676 159,130.51928 L159,193.48072 C159,197.616951 162.392308,201 166.538462,201" id="Fill-76" fill="#5B5B5B" mask="url(#mask-6)"></path>
                <path d="M167.063738,193 L200.936262,193 C203.720916,193 206,190.698844 206,187.887223 L206,130.112777 C206,127.301156 203.720916,125 200.936262,125 L167.063738,125 C164.279084,125 162,127.301156 162,130.112777 L162,187.887223 C162,190.698844 164.279084,193 167.063738,193" id="Fill-77" fill="#FFFFFF" mask="url(#mask-6)"></path>
                <path d="M171,156 L196,156" id="Stroke-78" stroke="#9BBBC6" stroke-width="1.3" stroke-linecap="round" mask="url(#mask-6)"></path>
                <path d="M171,160 L196,160" id="Stroke-79" stroke="#9BBBC6" stroke-width="1.3" stroke-linecap="round" mask="url(#mask-6)"></path>
                <path d="M171,164 L196,164" id="Stroke-80" stroke="#9BBBC6" stroke-width="1.3" stroke-linecap="round" mask="url(#mask-6)"></path>
                <path d="M171,168 L196,168" id="Stroke-81" stroke="#9BBBC6" stroke-width="1.3" stroke-linecap="round" mask="url(#mask-6)"></path>
                <path d="M171,173 L196,173" id="Stroke-82" stroke="#9BBBC6" stroke-width="1.3" stroke-linecap="round" mask="url(#mask-6)"></path>
                <path d="M171,177 L196,177" id="Stroke-83" stroke="#9BBBC6" stroke-width="1.3" stroke-linecap="round" mask="url(#mask-6)"></path>
                <path d="M171,181 L196,181" id="Stroke-84" stroke="#9BBBC6" stroke-width="1.3" stroke-linecap="round" mask="url(#mask-6)"></path>
                <path d="M171,185 L196,185" id="Stroke-85" stroke="#9BBBC6" stroke-width="1.3" stroke-linecap="round" mask="url(#mask-6)"></path>
                <path d="M171,189 L196,189" id="Stroke-86" stroke="#9BBBC6" stroke-width="1.3" stroke-linecap="round" mask="url(#mask-6)"></path>
                <path d="M169,149 L198,149" id="Stroke-87" stroke="#9BBBC6" stroke-width="8" stroke-linecap="round" mask="url(#mask-6)"></path>
                <polygon id="Fill-88" fill="#CAD4D8" mask="url(#mask-6)" points="168 143 200 143 200 125 168 125"></polygon>
                <path d="M181,195.5 C181,196.880625 182.119375,198 183.5,198 C184.880625,198 186,196.880625 186,195.5 C186,194.119375 184.880625,193 183.5,193 C182.119375,193 181,194.119375 181,195.5" id="Fill-89" fill="#FFFFFF" mask="url(#mask-6)"></path>
            </g>
        </g>
    </g>
</svg>