<svg xmlns="http://www.w3.org/2000/svg" width="80" height="40" viewBox="0 0 80 40"><defs><style>.d9ffe6cc-b1cf-47e9-941c-4c5ec115db5e{fill:#4f4f4f;}.\34 c35d763-0119-4bcb-86c7-d381c259ee42{fill:none;stroke:#4f4f4f;stroke-miterlimit:10;stroke-width:2.08px;}</style></defs><title>Plan de travail 1</title><g id="307b0ce1-ae3a-4c78-b13e-763ac11ffb78" data-name="text"><path class="d9ffe6cc-b1cf-47e9-941c-4c5ec115db5e" d="M28.38,30.31a.73.73,0,0,0-.41-.65,4.69,4.69,0,0,0-1.32-.42q-3-.63-3-2.56a2.33,2.33,0,0,1,.93-1.88A3.77,3.77,0,0,1,27,24a4,4,0,0,1,2.57.76,2.38,2.38,0,0,1,1,2H28.29A1.09,1.09,0,0,0,28,26a1.32,1.32,0,0,0-1-.32,1.35,1.35,0,0,0-.88.26.81.81,0,0,0-.31.66.69.69,0,0,0,.36.6,3.61,3.61,0,0,0,1.2.4,9.86,9.86,0,0,1,1.42.38,2.33,2.33,0,0,1,1.79,2.27,2.2,2.2,0,0,1-1,1.87A4.28,4.28,0,0,1,27,32.8a4.46,4.46,0,0,1-1.89-.38,3.15,3.15,0,0,1-1.29-1A2.41,2.41,0,0,1,23.37,30h2.14a1.18,1.18,0,0,0,.45.92,1.77,1.77,0,0,0,1.11.32A1.63,1.63,0,0,0,28,31,.77.77,0,0,0,28.38,30.31Z"/><path class="d9ffe6cc-b1cf-47e9-941c-4c5ec115db5e" d="M33.27,28.35a5,5,0,0,1,.89-3.15A2.89,2.89,0,0,1,36.59,24a2.59,2.59,0,0,1,2.16,1l.15-.88h2V35.89H38.62v-4a2.6,2.6,0,0,1-2,.88,2.88,2.88,0,0,1-2.4-1.17A5.3,5.3,0,0,1,33.27,28.35Zm2.25.16A3.32,3.32,0,0,0,36,30.35a1.36,1.36,0,0,0,1.2.63,1.52,1.52,0,0,0,1.47-.83V26.66a1.5,1.5,0,0,0-1.45-.8A1.38,1.38,0,0,0,36,26.5,3.65,3.65,0,0,0,35.52,28.5Z"/><path class="d9ffe6cc-b1cf-47e9-941c-4c5ec115db5e" d="M49.31,31.79a2.83,2.83,0,0,1-2.31,1A2.67,2.67,0,0,1,44.93,32a3.34,3.34,0,0,1-.73-2.29V24.2h2.26v5.46q0,1.32,1.2,1.32a1.63,1.63,0,0,0,1.58-.8v-6H51.5v8.45H49.37Z"/><path class="d9ffe6cc-b1cf-47e9-941c-4c5ec115db5e" d="M59.69,32.65a2.54,2.54,0,0,1-.22-.76,2.73,2.73,0,0,1-2.13.91,3,3,0,0,1-2.06-.72,2.31,2.31,0,0,1-.82-1.81,2.38,2.38,0,0,1,1-2.06,4.9,4.9,0,0,1,2.88-.73h1V27a1.39,1.39,0,0,0-.3-.94,1.18,1.18,0,0,0-.95-.35,1.34,1.34,0,0,0-.89.27.92.92,0,0,0-.32.75H54.65a2.26,2.26,0,0,1,.45-1.36,3,3,0,0,1,1.28-1A4.69,4.69,0,0,1,58.24,24a3.69,3.69,0,0,1,2.48.78A2.74,2.74,0,0,1,61.63,27V30.7A4,4,0,0,0,62,32.51v.13Zm-1.86-1.57a1.94,1.94,0,0,0,.92-.22,1.46,1.46,0,0,0,.62-.6V28.81h-.84q-1.7,0-1.8,1.17v.13a.9.9,0,0,0,.3.69A1.16,1.16,0,0,0,57.82,31.08Z"/><path class="d9ffe6cc-b1cf-47e9-941c-4c5ec115db5e" d="M69.71,26.32a6,6,0,0,0-.81-.06,1.65,1.65,0,0,0-1.68.87v5.53H65V24.2h2.13l.06,1A2.09,2.09,0,0,1,69,24a2.33,2.33,0,0,1,.7.1Z"/><path class="d9ffe6cc-b1cf-47e9-941c-4c5ec115db5e" d="M76.13,32.8a4.15,4.15,0,0,1-3-1.14,4.05,4.05,0,0,1-1.17-3v-.22a5.11,5.11,0,0,1,.49-2.28,3.61,3.61,0,0,1,1.39-1.55A3.92,3.92,0,0,1,75.88,24a3.5,3.5,0,0,1,2.73,1.09,4.44,4.44,0,0,1,1,3.1v.92H74.23a2.09,2.09,0,0,0,.66,1.33,2,2,0,0,0,1.39.5,2.44,2.44,0,0,0,2-.94l1.11,1.24a3.39,3.39,0,0,1-1.37,1.12A4.5,4.5,0,0,1,76.13,32.8Zm-.26-6.94a1.41,1.41,0,0,0-1.09.45,2.35,2.35,0,0,0-.54,1.3h3.14v-.18A1.67,1.67,0,0,0,77,26.27,1.46,1.46,0,0,0,75.87,25.86Z"/><path class="d9ffe6cc-b1cf-47e9-941c-4c5ec115db5e" d="M5.68,13.78a2.65,2.65,0,0,1-2.16,1A2.5,2.5,0,0,1,1.58,14a3.13,3.13,0,0,1-.68-2.14V6.68H3v5.11Q3,13,4.13,13a1.52,1.52,0,0,0,1.48-.75V6.68H7.73v7.91h-2Z"/><path class="d9ffe6cc-b1cf-47e9-941c-4c5ec115db5e" d="M12.76,6.68l.06.91A2.76,2.76,0,0,1,15.1,6.53,2.29,2.29,0,0,1,17,7.27a3.44,3.44,0,0,1,.63,2.21v5.11H15.49V9.53a1.37,1.37,0,0,0-.29-1,1.31,1.31,0,0,0-1-.3A1.45,1.45,0,0,0,12.89,9v5.58H10.78V6.68Z"/><path class="d9ffe6cc-b1cf-47e9-941c-4c5ec115db5e" d="M22.93,14.59H20.81V6.68h2.12Z"/><path class="d9ffe6cc-b1cf-47e9-941c-4c5ec115db5e" d="M25.83,10.56a4.7,4.7,0,0,1,.45-2.1A3.32,3.32,0,0,1,27.59,7a3.81,3.81,0,0,1,2-.5,3.6,3.6,0,0,1,2.61,1,3.94,3.94,0,0,1,1.13,2.66v.54a4.13,4.13,0,0,1-1,2.92,3.53,3.53,0,0,1-2.72,1.1,3.55,3.55,0,0,1-2.73-1.1,4.21,4.21,0,0,1-1-3Zm2.11.15a3,3,0,0,0,.42,1.72,1.52,1.52,0,0,0,2.41,0,3.25,3.25,0,0,0,.43-1.89,2.93,2.93,0,0,0-.43-1.71,1.4,1.4,0,0,0-1.21-.61,1.37,1.37,0,0,0-1.2.6A3.28,3.28,0,0,0,27.95,10.71Z"/><path class="d9ffe6cc-b1cf-47e9-941c-4c5ec115db5e" d="M38.07,6.68l.06.91a2.76,2.76,0,0,1,2.27-1.06,2.29,2.29,0,0,1,1.87.74,3.44,3.44,0,0,1,.63,2.21v5.11H40.79V9.53a1.37,1.37,0,0,0-.29-1,1.31,1.31,0,0,0-1-.3A1.45,1.45,0,0,0,38.19,9v5.58H36.08V6.68Z"/></g><g id="7faecacc-63da-4052-abdf-02762e43c244" data-name="line"><polyline class="4c35d763-0119-4bcb-86c7-d381c259ee42" points="20.84 2.69 48.23 2.69 48.23 18.72 18.34 18.72 18.34 37.26 30.57 37.26"/></g></svg>