<?xml version="1.0" encoding="UTF-8"?>
<svg width="18px" height="18px" viewBox="0 0 18 18" version="1.1" xmlns="http://www.w3.org/2000/svg" xmlns:xlink="http://www.w3.org/1999/xlink">
    <!-- Generator: Sketch 47.1 (45422) - http://www.bohemiancoding.com/sketch -->
    <title>Combined Shape</title>
    <desc>Created with Sketch.</desc>
    <defs></defs>
    <g id="Welcome" stroke="none" stroke-width="1" fill="none" fill-rule="evenodd">
        <g id="Desktop-HD-Copy-3" transform="translate(-1023.000000, -366.000000)" stroke="#E66868" stroke-width="2">
            <path d="M1039.14645,367.146447 L1032,374.292893 L1024.85355,367.146447 C1024.65829,366.951184 1024.34171,366.951184 1024.14645,367.146447 C1023.95118,367.341709 1023.95118,367.658291 1024.14645,367.853553 L1031.29289,375 L1024.63783,381.655065 C1024.44257,381.850327 1024.44257,382.166909 1024.63783,382.362172 C1024.83309,382.557434 1025.14967,382.557434 1025.34494,382.362172 L1032,375.707107 L1038.65506,382.362172 C1038.85033,382.557434 1039.16691,382.557434 1039.36217,382.362172 C1039.55743,382.166909 1039.55743,381.850327 1039.36217,381.655065 L1032.70711,375 L1039.85355,367.853553 C1040.04882,367.658291 1040.04882,367.341709 1039.85355,367.146447 C1039.65829,366.951184 1039.34171,366.951184 1039.14645,367.146447 Z" id="Combined-Shape"></path>
        </g>
    </g>
</svg>